<?xml version="1.0" encoding="UTF-8"?>
<svg version="1.1" viewBox="0 0 48 48" xmlns="http://www.w3.org/2000/svg">
  <title>W Social Logo</title>
	<rect x="3.5763e-7" y="-.32" width="48" height="48.64" style="fill:#b3b3b3;opacity:0"/>
	<path d="m24.17 24.907 6.3847-.5852 4.9578-16.728h8.3638l-13.322 32.022-6.3847-14.709z" fill="#ddd"/>
	<path d="m14.191 11.329h-8.0877l12.033 28.208 4.3529-7.3973-8.2981-20.811z" fill="#fff"/>
	<path d="m25.723 24.769 4.0702-.3748c.4603-.0394.8482-.3616.9797-.8022l4.8329-15.958c.1446-.48.5786-.80876 1.0783-.80876h5.8324c.8022 0 1.3479.81534 1.0389 1.5584l-12.71 30.529c-.3156.7693-.8876.697-1.7424.697l-4.3135-13.276c-.309-.7035.1644-1.4991.9337-1.5715v.0066z" fill="#ddd"/>
	<path d="m20.106 18.51 2.4854-3.932c.96-1.5189 3.2614-1.2165 3.794.5063l2.7222 8.8701 3.6691-12.625h7.8115l-11.481 28.287-8.9951-21.107h-.0065z" fill="#fff"/>
	<path d="m22.715 24.552 1.9661-3.1101c.9665-1.5255 3.2811-1.2165 3.8071.5063l.6115 1.9989 4.9578-17.129h8.3638l-13.322 32.791-6.3847-15.064v.0066z" fill="#aaa"/>
</svg>
